<?xml version="1.0"?>
<svg xmlns="http://www.w3.org/2000/svg" id="Layer_1_1_" enable-background="new 0 0 96 96" height="512px" viewBox="0 0 96 96" width="512px" class=""><g><path d="m17 34c0-.552-.448-1-1-1h-8c-.552 0-1 .448-1 1v8c0 .552.448 1 1 1h8c.552 0 1-.448 1-1zm-2 7h-6v-6h6z" data-original="#000000" class="active-path" data-old_color="#000000" fill="#FFFFFF"/><path d="m30 34c0-.552-.448-1-1-1h-8c-.552 0-1 .448-1 1v8c0 .552.448 1 1 1h8c.552 0 1-.448 1-1zm-2 7h-6v-6h6z" data-original="#000000" class="active-path" data-old_color="#000000" fill="#FFFFFF"/><path d="m17 47c0-.552-.448-1-1-1h-8c-.552 0-1 .448-1 1v8c0 .552.448 1 1 1h8c.552 0 1-.448 1-1zm-2 7h-6v-6h6z" data-original="#000000" class="active-path" data-old_color="#000000" fill="#FFFFFF"/><path d="m30 47c0-.552-.448-1-1-1h-8c-.552 0-1 .448-1 1v8c0 .552.448 1 1 1h8c.552 0 1-.448 1-1zm-2 7h-6v-6h6z" data-original="#000000" class="active-path" data-old_color="#000000" fill="#FFFFFF"/><path d="m16 59h-8c-.552 0-1 .448-1 1v8c0 .552.448 1 1 1h8c.552 0 1-.448 1-1v-8c0-.552-.448-1-1-1zm-1 8h-6v-6h6z" data-original="#000000" class="active-path" data-old_color="#000000" fill="#FFFFFF"/><path d="m29 59h-8c-.552 0-1 .448-1 1v8c0 .552.448 1 1 1h8c.552 0 1-.448 1-1v-8c0-.552-.448-1-1-1zm-1 8h-6v-6h6z" data-original="#000000" class="active-path" data-old_color="#000000" fill="#FFFFFF"/><path d="m47 7h-8c-.552 0-1 .448-1 1v8c0 .552.448 1 1 1h8c.552 0 1-.448 1-1v-8c0-.552-.448-1-1-1zm-1 8h-6v-6h6z" data-original="#000000" class="active-path" data-old_color="#000000" fill="#FFFFFF"/><path d="m52 17h8c.552 0 1-.448 1-1v-8c0-.552-.448-1-1-1h-8c-.552 0-1 .448-1 1v8c0 .552.448 1 1 1zm1-8h6v6h-6z" data-original="#000000" class="active-path" data-old_color="#000000" fill="#FFFFFF"/><path d="m65 17h8c.552 0 1-.448 1-1v-8c0-.552-.448-1-1-1h-8c-.552 0-1 .448-1 1v8c0 .552.448 1 1 1zm1-8h6v6h-6z" data-original="#000000" class="active-path" data-old_color="#000000" fill="#FFFFFF"/><path d="m47 20h-8c-.552 0-1 .448-1 1v8c0 .552.448 1 1 1h8c.552 0 1-.448 1-1v-8c0-.552-.448-1-1-1zm-1 8h-6v-6h6z" data-original="#000000" class="active-path" data-old_color="#000000" fill="#FFFFFF"/><path d="m52 30h8c.552 0 1-.448 1-1v-8c0-.552-.448-1-1-1h-8c-.552 0-1 .448-1 1v8c0 .552.448 1 1 1zm1-8h6v6h-6z" data-original="#000000" class="active-path" data-old_color="#000000" fill="#FFFFFF"/><path d="m65 30h8c.552 0 1-.448 1-1v-8c0-.552-.448-1-1-1h-8c-.552 0-1 .448-1 1v8c0 .552.448 1 1 1zm1-8h6v6h-6z" data-original="#000000" class="active-path" data-old_color="#000000" fill="#FFFFFF"/><path d="m47 33h-8c-.552 0-1 .448-1 1v8c0 .552.448 1 1 1h8c.552 0 1-.448 1-1v-8c0-.552-.448-1-1-1zm-1 8h-6v-6h6z" data-original="#000000" class="active-path" data-old_color="#000000" fill="#FFFFFF"/><path d="m52 43h8c.552 0 1-.448 1-1v-8c0-.552-.448-1-1-1h-8c-.552 0-1 .448-1 1v8c0 .552.448 1 1 1zm1-8h6v6h-6z" data-original="#000000" class="active-path" data-old_color="#000000" fill="#FFFFFF"/><path d="m65 43h8c.552 0 1-.448 1-1v-8c0-.552-.448-1-1-1h-8c-.552 0-1 .448-1 1v8c0 .552.448 1 1 1zm1-8h6v6h-6z" data-original="#000000" class="active-path" data-old_color="#000000" fill="#FFFFFF"/><path d="m47 46h-8c-.552 0-1 .448-1 1v8c0 .552.448 1 1 1h8c.552 0 1-.448 1-1v-8c0-.552-.448-1-1-1zm-1 8h-6v-6h6z" data-original="#000000" class="active-path" data-old_color="#000000" fill="#FFFFFF"/><path d="m61 55v-8c0-.552-.448-1-1-1h-8c-.552 0-1 .448-1 1v8c0 .552.448 1 1 1h8c.552 0 1-.448 1-1zm-2-1h-6v-6h6z" data-original="#000000" class="active-path" data-old_color="#000000" fill="#FFFFFF"/><path d="m65 56h8c.552 0 1-.448 1-1v-8c0-.552-.448-1-1-1h-8c-.552 0-1 .448-1 1v8c0 .552.448 1 1 1zm1-8h6v6h-6z" data-original="#000000" class="active-path" data-old_color="#000000" fill="#FFFFFF"/><path d="m91 68h-8v-2c0-.879-.231-1.744-.669-2.5-.277-.479-.89-.642-1.366-.365-.479.277-.642.888-.365 1.366.261.453.4.972.4 1.499v2h-12v-2c0-1.654 1.346-3 3-3h6c.552 0 1-.448 1-1v-59c0-.552-.448-1-1-1h-44c-.552 0-1 .448-1 1v25h-11c-.552 0-1 .448-1 1s.448 1 1 1h11v62h-29v-62h14c.552 0 1-.448 1-1v-9c0-.055-.023-.103-.031-.155 3.348-3.925 3.176-9.842-.534-13.552-.391-.391-1.023-.391-1.414 0l-12.728 12.728c-.391.391-.391 1.023 0 1.414 1.949 1.95 4.51 2.924 7.071 2.924 1.973 0 3.943-.585 5.636-1.742v6.383h-14c-.552 0-1 .448-1 1v64c0 .552.448 1 1 1h37c.552 0 1-.448 1-1v-21h10v20h-7c-.552 0-1 .448-1 1s.448 1 1 1h47c1.654 0 3-1.346 3-3v-20c0-1.654-1.346-3-3-3zm-84.542-48.316 11.226-11.226c2.438 3.136 2.217 7.683-.663 10.563-2.879 2.88-7.428 3.1-10.563.663zm49.726 72.316h-3.184v-21c0-.552-.448-1-1-1h-12c-.552 0-1 .448-1 1v21h-4v-88h42v57h-5c-2.757 0-5 2.243-5 5v2h-8c-1.654 0-3 1.346-3 3v20c0 .352.072.686.184 1zm2.816 0c-.551 0-1-.449-1-1v-2.899c1.956.399 3.5 1.943 3.899 3.899zm33-1c0 .551-.449 1-1 1h-2.899c.399-1.956 1.943-3.5 3.899-3.899zm0-4.92c-3.059.441-5.48 2.861-5.92 5.92h-22.16c-.441-3.059-2.861-5.48-5.92-5.92v-5.08h5v1c0 .552.448 1 1 1h1v2c0 .552.448 1 1 1s1-.448 1-1v-2h1c.552 0 1-.448 1-1v-1h12v1c0 .552.448 1 1 1h1v2c0 .552.448 1 1 1s1-.448 1-1v-2h1c.552 0 1-.448 1-1v-1h5zm-27-5.08v-3h2v3zm18 0v-3h2v3zm9-2h-5v-2c0-.552-.448-1-1-1h-4c-.552 0-1 .448-1 1v2h-12v-2c0-.552-.448-1-1-1h-4c-.552 0-1 .448-1 1v2h-5v-8c0-.551.449-1 1-1h32c.551 0 1 .449 1 1z" data-original="#000000" class="active-path" data-old_color="#000000" fill="#FFFFFF"/><circle cx="42" cy="67" r="1" data-original="#000000" class="active-path" data-old_color="#000000" fill="#FFFFFF"/><circle cx="46" cy="67" r="1" data-original="#000000" class="active-path" data-old_color="#000000" fill="#FFFFFF"/><circle cx="50" cy="67" r="1" data-original="#000000" class="active-path" data-old_color="#000000" fill="#FFFFFF"/></g> </svg>
